<?xml version="1.0" encoding="UTF-8" standalone="no"?>
<!-- Created with Inkscape (http://www.inkscape.org/) -->

<svg
   width="81.674927mm"
   height="114.86329mm"
   viewBox="0 0 81.674927 114.86329"
   version="1.1"
   id="svg1"
   xml:space="preserve"
   xmlns:xlink="http://www.w3.org/1999/xlink"
   xmlns="http://www.w3.org/2000/svg"
   xmlns:svg="http://www.w3.org/2000/svg"><defs
     id="defs1"><linearGradient
       id="linearGradient3"><stop
         style="stop-color:#7acbf2;stop-opacity:1;"
         offset="0"
         id="stop3" /><stop
         style="stop-color:#3950a3;stop-opacity:1;"
         offset="1"
         id="stop4" /></linearGradient><linearGradient
       xlink:href="#linearGradient3"
       id="linearGradient19"
       gradientUnits="userSpaceOnUse"
       gradientTransform="matrix(0.88899684,0,0,0.88899684,-114.94619,465.42074)"
       x1="279.1304"
       y1="-250.4659"
       x2="384.94232"
       y2="-333.40683" /></defs><g
     id="g19"
     transform="rotate(90,190.43644,56.291273)"
     style="display:inline"><path
       id="path5"
       style="display:inline;fill:url(#linearGradient19);stroke-width:0.33757"
       d="m 153.63281,165.05278 c -10.79617,0 -19.48763,8.69147 -19.48763,19.48763 v 42.68865 c 0,5.39809 2.17287,10.26999 5.69525,13.79238 3.52238,3.52239 8.39429,5.69525 13.79238,5.69525 0,0 4.28577,0.28305 1.30977,-4.93342 -1.98121,-3.47274 -1.77714,-8.11461 -1.00361,-11.16785 0.87736,-3.4631 6.13748,-15.54311 21.03861,-15.36181 14.9147,0.18146 20.82665,11.30354 21.78572,17.51298 0.47506,3.07573 0.11609,6.51262 -1.40379,9.23047 -1.32212,2.3642 -1.97192,4.6187 0.96195,4.71963 10.78979,0.37118 19.48762,-8.69146 19.48762,-19.48763 0,0 -0.92309,-12.32512 4.52755,-13.35203 1.42607,0.0408 2.87185,0.32789 4.18912,0.87576 4.17261,1.73542 3.29076,8.2196 11.32414,7.45453 8.03334,-0.76508 12.55729,-6.30069 13.13112,-16.62931 0.5738,-10.32863 -7.96675,-16.07834 -14.08741,-16.07834 -6.12066,0 -6.81772,5.09186 -10.71111,6.6945 -1.32312,0.54464 -2.80466,1.31671 -4.18693,0.94706 -5.07053,-1.35598 -4.18648,-12.60082 -4.18648,-12.60082 0,-10.79616 -8.69145,-19.48763 -19.48762,-19.48763 z" /></g></svg>
