<?xml version="1.0" encoding="UTF-8" standalone="no"?>
<!-- Created with Inkscape (http://www.inkscape.org/) -->

<svg
   width="114.86329mm"
   height="81.674927mm"
   viewBox="0 0 114.86329 81.674927"
   version="1.1"
   id="svg1"
   xml:space="preserve"
   xmlns:xlink="http://www.w3.org/1999/xlink"
   xmlns="http://www.w3.org/2000/svg"
   xmlns:svg="http://www.w3.org/2000/svg"><defs
     id="defs1"><linearGradient
       id="linearGradient1"><stop
         style="stop-color:#543e98;stop-opacity:1;"
         offset="0"
         id="stop1" /><stop
         style="stop-color:#a97eb7;stop-opacity:1;"
         offset="1"
         id="stop2" /></linearGradient><linearGradient
       xlink:href="#linearGradient1"
       id="linearGradient22"
       gradientUnits="userSpaceOnUse"
       gradientTransform="matrix(0.88899684,0,0,0.88899684,-114.94619,465.42074)"
       x1="280.19376"
       y1="-210.88736"
       x2="372.06689"
       y2="-210.88736" /></defs><g
     id="g19"
     transform="rotate(90,234.75968,100.61451)"
     style="display:inline"><path
       id="path19"
       style="display:inline;fill:url(#linearGradient22);fill-rule:nonzero;stroke-width:0.33757"
       d="m 134.14518,315.88656 c 0,10.79617 8.69146,19.48763 19.48763,19.48763 h 42.68865 c 5.39808,0 10.26999,-2.17286 13.79237,-5.69525 3.52239,-3.52238 5.69525,-8.39429 5.69525,-13.79238 0,0 0.28304,-4.28577 -4.93342,-1.30977 -3.47273,1.9812 -8.1146,1.77714 -11.16784,1.00361 -3.4631,-0.87737 -15.54312,-6.13748 -15.36182,-21.03861 0.18146,-14.91471 11.30355,-20.82665 17.51299,-21.78573 3.07573,-0.47505 6.51261,-0.11609 9.23046,1.4038 2.36419,1.32213 4.6187,1.97192 4.71963,-0.96195 0.37118,-10.78978 -8.69145,-19.48763 -19.48762,-19.48763 0,0 -12.32513,0.92308 -13.35203,-4.52755 0.0408,-1.42607 0.32789,-2.87185 0.87576,-4.18912 1.73542,-4.17261 8.2196,-3.29076 7.45452,-11.32413 -0.76507,-8.03335 -6.30069,-12.55729 -16.62931,-13.13112 -10.32862,-0.57381 -16.07833,7.96674 -16.07833,14.0874 0,6.12067 5.09186,6.81772 6.6945,10.71112 0.54463,1.32311 1.3167,2.80465 0.94706,4.18692 -1.35598,5.07053 -12.60082,4.18648 -12.60082,4.18648 -10.79617,0 -19.48763,8.69146 -19.48763,19.48763 z" /></g></svg>
