<?xml version="1.0" encoding="UTF-8" standalone="no"?>
<!-- Created with Inkscape (http://www.inkscape.org/) -->

<svg
   width="81.674927mm"
   height="114.86329mm"
   viewBox="0 0 81.674927 114.86329"
   version="1.1"
   id="svg1"
   xml:space="preserve"
   xmlns:xlink="http://www.w3.org/1999/xlink"
   xmlns="http://www.w3.org/2000/svg"
   xmlns:svg="http://www.w3.org/2000/svg"><defs
     id="defs1"><linearGradient
       id="linearGradient7"><stop
         style="stop-color:#ee497b;stop-opacity:1;"
         offset="0"
         id="stop7" /><stop
         style="stop-color:#f9d835;stop-opacity:1;"
         offset="1"
         id="stop8" /></linearGradient><linearGradient
       xlink:href="#linearGradient7"
       id="linearGradient21"
       gradientUnits="userSpaceOnUse"
       gradientTransform="matrix(0.88899684,0,0,0.88899684,-114.94619,465.42074)"
       x1="369.16019"
       y1="-153.94072"
       x2="462.21198"
       y2="-227.31155" /></defs><g
     id="g19"
     transform="rotate(90,262.48874,72.885454)"
     style="display:inline"><path
       id="path18"
       style="display:inline;fill:url(#linearGradient21);stroke-width:0.33757"
       d="m 284.97895,335.37419 c 10.79617,0 19.48763,-8.69146 19.48763,-19.48764 V 273.1979 c 0,-5.39807 -2.17286,-10.26999 -5.69525,-13.79236 -3.52238,-3.52239 -8.39429,-5.69526 -13.79238,-5.69526 0,0 -4.28577,-0.28304 -1.30976,4.93341 1.98119,3.47274 1.77713,8.11462 1.0036,11.16785 -0.87737,3.4631 -6.13747,15.54312 -21.0386,15.36183 -14.91471,-0.18147 -20.82666,-11.30354 -21.78574,-17.51299 -0.47505,-3.07574 -0.11608,-6.51262 1.4038,-9.23047 1.32213,-2.36419 1.97192,-4.61871 -0.96195,-4.71963 -10.78979,-0.37118 -19.48763,8.69146 -19.48763,19.48762 0,0 0.92308,12.32514 -4.52755,13.35203 -1.42607,-0.0408 -2.87185,-0.32788 -4.18912,-0.87576 -4.1726,-1.73541 -3.29075,-8.21959 -11.32413,-7.45451 -8.03334,0.76507 -12.55729,6.30069 -13.13112,16.62931 -0.5738,10.32862 7.96675,16.07833 14.08741,16.07833 6.12066,0 6.81771,-5.09186 10.7111,-6.6945 1.32312,-0.54463 2.80466,-1.3167 4.18693,-0.94706 5.07053,1.35597 4.18648,12.60081 4.18648,12.60081 0,10.79618 8.69146,19.48764 19.48763,19.48764 z" /></g></svg>
