<?xml version="1.0" encoding="UTF-8" standalone="no"?>
<!-- Created with Inkscape (http://www.inkscape.org/) -->

<svg
   width="114.8633mm"
   height="81.674927mm"
   viewBox="0 0 114.8633 81.674927"
   version="1.1"
   id="svg1"
   xml:space="preserve"
   xmlns:xlink="http://www.w3.org/1999/xlink"
   xmlns="http://www.w3.org/2000/svg"
   xmlns:svg="http://www.w3.org/2000/svg"><defs
     id="defs1"><linearGradient
       id="linearGradient5"><stop
         style="stop-color:#a9cf34;stop-opacity:1;"
         offset="0"
         id="stop5" /><stop
         style="stop-color:#129946;stop-opacity:1;"
         offset="1"
         id="stop6" /></linearGradient><linearGradient
       xlink:href="#linearGradient5"
       id="linearGradient20"
       gradientUnits="userSpaceOnUse"
       gradientTransform="matrix(0.88899684,0,0,0.88899684,-114.94619,465.42074)"
       x1="379.90894"
       y1="-273.27017"
       x2="471.78207"
       y2="-273.27017" /></defs><g
     id="g19"
     transform="rotate(90,251.35388,28.562226)"
     style="display:inline"><path
       id="path7"
       style="display:inline;fill:url(#linearGradient20);stroke-width:0.33757"
       d="m 304.46658,184.54041 c 0,-10.79616 -8.69146,-19.48763 -19.48764,-19.48763 h -42.68865 c -5.39807,0 -10.26999,2.17287 -13.79236,5.69526 -3.52239,3.52238 -5.69526,8.39429 -5.69526,13.79237 0,0 -0.28304,4.28578 4.93341,1.30978 3.47274,-1.98121 8.11462,-1.77714 11.16785,-1.00362 3.4631,0.87736 15.54312,6.13749 15.36183,21.03861 -0.18146,14.9147 -11.30354,20.82665 -17.51299,21.78572 -3.07574,0.47506 -6.51261,0.11609 -9.23046,-1.40379 -2.3642,-1.32212 -4.61872,-1.97192 -4.71964,0.96195 -0.37118,10.78979 8.69146,19.48763 19.48762,19.48763 0,0 12.32514,-0.92307 13.35203,4.52755 -0.0408,1.42607 -0.32788,2.87185 -0.87576,4.18912 -1.73541,4.17261 -8.21959,3.29076 -7.45451,11.32413 0.76507,8.03334 6.30069,12.5573 16.62931,13.13113 10.32862,0.5738 16.07833,-7.96675 16.07833,-14.08741 0,-6.12066 -5.09186,-6.81772 -6.6945,-10.71111 -0.54463,-1.32312 -1.3167,-2.80466 -0.94706,-4.18693 1.35597,-5.07053 12.60081,-4.18648 12.60081,-4.18648 10.79618,0 19.48764,-8.69146 19.48764,-19.48763 z" /></g></svg>
